<?xml version="1.0" standalone="no"?><!DOCTYPE svg PUBLIC "-//W3C//DTD SVG 1.1//EN" "http://www.w3.org/Graphics/SVG/1.1/DTD/svg11.dtd"><svg height="1200" node-id="1" sillyvg="true" template-height="1200" template-width="1200" version="1.1" viewBox="0 0 1200 1200" width="1200" xmlns="http://www.w3.org/2000/svg" xmlns:xlink="http://www.w3.org/1999/xlink"><defs node-id="42"><clipPath id="clip-path" node-id="5"><path d="M 1062.13 -633.29 C 1062.13 -510.73 1013.44 -393.18 926.78 -306.51 C 840.11 -219.85 722.56 -171.16 600.00 -171.16 C 477.44 -171.16 359.89 -219.85 273.22 -306.51 C 186.56 -393.18 137.87 -510.73 137.87 -633.29 C 137.87 -755.85 186.56 -873.40 273.22 -960.07 C 359.89 -1046.73 477.44 -1095.42 600.00 -1095.42 C 722.56 -1095.42 840.11 -1046.73 926.78 -960.07 C 1013.44 -873.40 1062.13 -755.85 1062.13 -633.29 Z" fill="#000000" fill-rule="nonzero" node-id="45" stroke="none" target-height="924.25995" target-width="924.26" target-x="137.87" target-y="-1095.4199"></path></clipPath><clipPath id="clip-path-2" node-id="7"><path d="M 1062.13 600.00 C 1062.13 722.56 1013.44 840.11 926.78 926.78 C 840.11 1013.44 722.56 1062.13 600.00 1062.13 C 477.44 1062.13 359.89 1013.44 273.22 926.78 C 186.56 840.11 137.87 722.56 137.87 600.00 C 137.87 477.44 186.56 359.89 273.22 273.22 C 359.89 186.56 477.44 137.87 600.00 137.87 C 722.56 137.87 840.11 186.56 926.78 273.22 C 1013.44 359.89 1062.13 477.44 1062.13 600.00 Z" fill="#000000" fill-rule="nonzero" node-id="49" stroke="none" target-height="924.26" target-width="924.26" target-x="137.87" target-y="137.87"></path></clipPath><clipPath id="clip-path-3" node-id="9"><path d="M -185.10 600.00 C -185.10 722.56 -233.79 840.11 -320.45 926.78 C -407.12 1013.44 -524.67 1062.13 -647.23 1062.13 C -769.79 1062.13 -887.34 1013.44 -974.01 926.78 C -1060.67 840.11 -1109.36 722.56 -1109.36 600.00 C -1109.36 477.44 -1060.67 359.89 -974.01 273.22 C -887.34 186.56 -769.79 137.87 -647.23 137.87 C -524.67 137.87 -407.12 186.56 -320.45 273.22 C -233.79 359.89 -185.10 477.44 -185.10 600.00 Z" fill="#000000" fill-rule="nonzero" node-id="53" stroke="none" target-height="924.26" target-width="924.26" target-x="-1109.36" target-y="137.87"></path></clipPath></defs><path d="M 1062.13 600.00 C 1062.13 722.56 1013.44 840.11 926.78 926.78 C 840.11 1013.44 722.56 1062.13 600.00 1062.13 C 477.44 1062.13 359.89 1013.44 273.22 926.78 C 186.56 840.11 137.87 722.56 137.87 600.00 C 137.87 477.44 186.56 359.89 273.22 273.22 C 359.89 186.56 477.44 137.87 600.00 137.87 C 722.56 137.87 840.11 186.56 926.78 273.22 C 1013.44 359.89 1062.13 477.44 1062.13 600.00 Z" fill="#786295" fill-rule="nonzero" node-id="57" stroke="none" target-height="924.26" target-width="924.26" target-x="137.87" target-y="137.87"></path><g node-id="115"><g clip-path="url(#clip-path)" group-id="1" id="sillyvg_g_0" node-id="59"><path d="M 738.12 -371.94 L 857.73 -247.09 L 753.58 213.53 L 649.42 124.05 L 623.97 -211.39 L 648.77 -268.33 L 738.12 -371.94 Z" fill="#ffffff" fill-rule="nonzero" group-id="1" node-id="61" stroke="#370911" stroke-linecap="butt" stroke-width="14" target-height="585.47" target-width="233.76001" target-x="623.97" target-y="-371.93997"></path><path d="M 1010.29 -210.91 C 1065.06 -153.21 1105.16 -29.98 1132.54 69.77 C 1159.92 169.52 1194.15 403.26 1194.15 403.26 L 662.15 371.96 C 662.15 371.96 801.00 -183.52 813.72 -243.18 C 826.44 -302.84 839.40 -316.00 839.40 -316.00 C 839.40 -316.00 955.53 -268.61 1010.29 -210.91 Z" fill="#343535" fill-rule="nonzero" group-id="1" node-id="63" stroke="#370911" stroke-linecap="butt" stroke-width="14" target-height="719.26" target-width="532" target-x="662.15" target-y="-316"></path><path d="M 872.40 -278.39 C 881.20 -254.92 879.25 -159.07 859.69 -87.68 C 840.13 -16.29 687.56 264.39 687.56 264.39 C 687.56 264.39 752.11 -131.69 758.00 -219.71 C 763.89 -307.73 767.42 -347.33 767.42 -347.33 C 767.42 -347.33 849.93 -315.55 859.71 -302.84 C 869.49 -290.13 872.40 -278.39 872.40 -278.39 Z" fill="#343535" fill-rule="nonzero" group-id="1" node-id="65" stroke="#370911" stroke-linecap="butt" stroke-width="14" target-height="611.72" target-width="193.64008" target-x="687.55994" target-y="-347.33"></path><path d="M 459.11 -371.94 L 339.50 -247.09 L 443.66 213.53 L 547.81 124.05 L 582.93 -209.84 L 548.47 -268.33 L 459.11 -371.94 Z" fill="#ffffff" fill-rule="nonzero" group-id="1" node-id="67" stroke="#370911" stroke-linecap="butt" stroke-width="14" target-height="585.47" target-width="243.43" target-x="339.5" target-y="-371.93997"></path><path d="M 186.94 -210.91 C 132.17 -153.21 92.08 -30.00 64.69 69.77 C 37.30 169.54 3.08 403.26 3.08 403.26 L 535.08 371.96 C 535.08 371.96 396.23 -183.52 383.51 -243.18 C 370.79 -302.84 357.83 -316.00 357.83 -316.00 C 357.83 -316.00 241.71 -268.61 186.94 -210.91 Z" fill="#343535" fill-rule="nonzero" group-id="1" node-id="69" stroke="#370911" stroke-linecap="butt" stroke-width="14" target-height="719.26" target-width="532" target-x="3.08" target-y="-316"></path><path d="M 324.83 -278.39 C 316.00 -254.92 318.00 -159.07 337.55 -87.68 C 357.10 -16.29 509.67 264.39 509.67 264.39 C 509.67 264.39 445.12 -131.69 439.26 -219.71 C 433.40 -307.73 429.84 -347.33 429.84 -347.33 C 429.84 -347.33 347.33 -315.55 337.55 -302.84 C 327.77 -290.13 324.83 -278.39 324.83 -278.39 Z" fill="#343535" fill-rule="nonzero" group-id="1" node-id="71" stroke="#370911" stroke-linecap="butt" stroke-width="14" target-height="611.72" target-width="193.67004" target-x="316" target-y="-347.33"></path><path d="M 528.18 117.69 L 600.06 264.39 L 671.82 122.83 L 623.04 -170.01 L 575.12 -170.81 L 528.18 117.69 Z" fill="#343535" fill-rule="nonzero" group-id="1" node-id="73" stroke="#370911" stroke-linecap="butt" stroke-width="14" target-height="435.2" target-width="143.64001" target-x="528.18" target-y="-170.81"></path></g></g><g node-id="116"><g clip-path="url(#clip-path-2)" group-id="2" id="sillyvg_g_1" node-id="76"><path d="M 346.55 897.26 C 368.99 915.21 393.24 930.77 418.90 943.71 C 459.58 963.84 609.77 973.13 619.06 973.13 C 628.35 973.13 758.42 982.42 763.06 973.13 C 767.70 963.84 851.32 922.00 856.00 917.39 C 860.68 912.78 883.87 785.77 883.87 762.55 C 883.87 739.33 851.35 521.77 851.35 521.77 C 851.35 521.77 365.16 520.17 358.96 559.30 C 352.76 598.43 346.58 757.90 346.58 757.90 Z" fill="#f0b477" fill-rule="nonzero" group-id="2" node-id="78" stroke="none" target-height="462.24994" target-width="537.32" target-x="346.55" target-y="520.17"></path><path d="M 489.02 781.94 L 485.13 1123.32 L 605.17 1128.03 L 722.64 1139.58 L 714.28 785.93 L 509.23 779.16 L 489.02 781.94 Z" fill="#eab9b1" fill-rule="nonzero" group-id="2" node-id="80" stroke="#370911" stroke-linecap="butt" stroke-width="14" target-height="360.41998" target-width="237.51001" target-x="485.13" target-y="779.16"></path><path d="M 896.47 594.00 C 896.47 633.85 870.38 672.15 838.19 672.15 C 806.00 672.15 779.92 639.85 779.92 600.00 C 779.92 560.15 813.01 527.85 845.19 527.85 C 877.37 527.85 896.47 554.15 896.47 594.00 Z" fill="#fde9d1" fill-rule="nonzero" group-id="2" node-id="82" stroke="#370911" stroke-linecap="butt" stroke-width="14" target-height="144.30005" target-width="116.54993" target-x="779.92004" target-y="527.85"></path><path d="M 421.08 600.00 C 421.08 639.85 394.99 672.15 362.81 672.15 C 330.63 672.15 303.53 633.85 303.53 594.00 C 303.53 554.15 323.62 527.85 355.81 527.85 C 388.00 527.85 421.08 560.15 421.08 600.00 Z" fill="#fde9d1" fill-rule="nonzero" group-id="2" node-id="84" stroke="#370911" stroke-linecap="butt" stroke-width="14" target-height="144.30005" target-width="117.54999" target-x="303.53" target-y="527.85"></path><path d="M 843.28 559.30 C 843.28 714.72 734.86 840.72 601.11 840.72 C 467.36 840.72 358.94 714.72 358.94 559.30 C 358.94 403.88 467.36 277.88 601.11 277.88 C 734.86 277.88 843.28 403.88 843.28 559.30 Z" fill="#f9d9d0" fill-rule="nonzero" group-id="2" node-id="86" stroke="#370911" stroke-linecap="butt" stroke-width="14" target-height="562.83997" target-width="484.33997" target-x="358.94" target-y="277.87997"></path><path d="M 526.95 548.08 C 526.95 555.06 524.12 561.75 519.09 566.68 C 514.06 571.62 507.23 574.39 500.11 574.39 C 485.29 574.39 473.27 562.61 473.27 548.08 C 473.27 533.55 485.29 521.77 500.11 521.77 C 507.23 521.77 514.06 524.54 519.09 529.48 C 524.12 534.41 526.95 541.10 526.95 548.08 Z" fill="#271d1f" fill-rule="nonzero" group-id="2" node-id="88" stroke="none" target-height="52.619995" target-width="53.680023" target-x="473.27" target-y="521.77"></path><path d="M 719.46 548.08 C 719.46 555.06 716.63 561.75 711.60 566.68 C 706.57 571.62 699.74 574.39 692.62 574.39 C 685.50 574.39 678.67 571.62 673.64 566.68 C 668.61 561.75 665.78 555.06 665.78 548.08 C 665.78 541.10 668.61 534.41 673.64 529.48 C 678.67 524.54 685.50 521.77 692.62 521.77 C 699.74 521.77 706.57 524.54 711.60 529.48 C 716.63 534.41 719.46 541.10 719.46 548.08 Z" fill="#271d1f" fill-rule="nonzero" group-id="2" node-id="90" stroke="none" target-height="52.619995" target-width="53.680054" target-x="665.77997" target-y="521.77"></path><path d="M 700.49 479.23 C 737.14 480.78 743.49 495.68 743.49 495.68" fill="none" group-id="2" node-id="92" stroke="#231815" stroke-linecap="round" stroke-width="20" target-height="16.450012" target-width="43.00006" target-x="700.49" target-y="479.22998"></path><path d="M 456.47 494.68 C 456.47 494.68 462.31 477.68 498.96 479.23" fill="none" group-id="2" node-id="94" stroke="#231815" stroke-linecap="round" stroke-width="20" target-height="17" target-width="42.48996" target-x="456.47" target-y="477.68"></path><path d="M 672.79 684.32 C 672.79 706.27 640.21 724.06 600.02 724.06 C 559.83 724.06 527.25 706.27 527.25 684.32 C 527.25 662.37 559.83 644.58 600.02 644.58 C 640.21 644.58 672.79 662.37 672.79 684.32 Z" fill="#ee8685" fill-rule="nonzero" group-id="2" node-id="96" stroke="#310304" stroke-linecap="butt" stroke-width="10" target-height="79.47998" target-width="145.54004" target-x="527.25" target-y="644.58"></path><path d="M 545.92 705.77 C 559.58 714.02 579.65 719.77 601.62 719.77 C 625.37 719.77 640.40 715.21 654.07 705.77 C 649.69 692.65 629.36 686.45 600.75 686.45 C 570.65 686.45 548.37 691.65 545.92 705.77 Z" fill="#e5415b" fill-rule="nonzero" group-id="2" node-id="98" stroke="none" target-height="33.320007" target-width="108.150024" target-x="545.92" target-y="686.45"></path><path d="M 603.90 672.72 C 636.97 672.72 652.55 671.72 666.20 666.31 C 662.05 652.62 653.89 646.22 599.98 649.13 C 548.98 646.43 538.91 652.24 533.77 664.34 C 545.38 671.47 561.93 672.72 603.90 672.72 Z" fill="#ffffff" fill-rule="nonzero" group-id="2" node-id="100" stroke="none" target-height="26.5" target-width="132.43" target-x="533.77" target-y="646.22"></path><path d="M 499.68 643.05 C 499.68 670.40 477.50 692.58 450.15 692.58 C 422.80 692.58 400.62 670.40 400.62 643.05 C 400.62 615.70 422.80 593.52 450.15 593.52 C 477.50 593.52 499.68 615.70 499.68 643.05 Z" fill="#de717e" fill-rule="nonzero" group-id="2" node-id="102" stroke="none" target-height="99.05994" target-width="99.06" target-x="400.62003" target-y="593.52"></path><path d="M 799.38 643.05 C 799.38 670.40 777.20 692.58 749.85 692.58 C 722.50 692.58 700.32 670.40 700.32 643.05 C 700.32 615.70 722.50 593.52 749.85 593.52 C 777.20 593.52 799.38 615.70 799.38 643.05 Z" fill="#de717e" fill-rule="nonzero" group-id="2" node-id="104" stroke="none" target-height="99.05994" target-width="99.06012" target-x="700.3199" target-y="593.52"></path><path d="M 585.36 292.85 C 585.36 292.85 492.19 318.14 482.88 381.36 C 473.57 444.58 456.25 468.87 430.16 508.61 C 404.07 548.35 370.06 565.61 377.52 594.55 C 384.98 623.49 432.31 676.42 437.90 719.77 C 443.49 763.12 408.07 832.48 400.62 874.00 C 393.17 915.52 469.83 957.58 441.89 986.49 C 413.95 1015.40 343.13 986.49 343.13 986.49 C 343.13 986.49 298.42 1012.18 276.06 999.33 C 253.70 986.48 244.38 928.68 244.38 928.68 C 244.38 928.68 166.12 944.94 162.38 885.33 C 158.64 825.72 162.38 809.46 162.38 809.46 C 162.38 809.46 194.05 849.20 216.38 820.30 C 238.71 791.40 177.25 758.88 205.20 690.23 C 233.15 621.58 262.96 634.23 281.60 598.10 C 300.24 561.97 231.29 522.23 264.83 468.04 C 298.37 413.85 305.83 406.62 343.08 347.04 C 380.33 287.46 384.12 264.00 427.00 229.62 C 469.88 195.24 509.00 179.00 535.05 189.88 C 551.05 196.44 568.08 200.11 585.36 200.72 C 585.36 200.72 663.61 165.16 697.15 186.55 C 730.69 207.94 749.32 247.69 773.54 289.24 C 797.76 330.79 861.12 312.72 868.54 357.88 C 875.96 403.04 853.63 426.52 868.54 455.43 C 883.45 484.34 937.48 446.43 937.48 504.20 C 937.48 561.97 902.08 571.04 926.30 603.55 C 950.52 636.06 971.02 627.04 961.70 666.78 C 952.38 706.52 935.62 715.55 950.52 742.65 C 965.42 769.75 989.65 762.52 985.92 798.65 C 982.19 834.78 931.92 842.00 958.00 870.91 C 984.08 899.82 1013.89 867.29 1013.89 867.29 C 1013.89 867.29 1013.89 961.23 969.18 964.84 C 924.47 968.45 920.73 961.23 920.73 961.23 C 920.73 961.23 894.65 1010.37 877.88 1002.96 C 861.11 995.55 840.61 975.68 840.61 975.68 C 840.61 975.68 767.94 1040.68 751.18 990.13 C 734.42 939.58 772.46 859.58 789.18 830.68 C 805.90 801.78 826.44 728.00 789.18 686.45 C 751.92 644.90 801.43 589.10 788.39 549.36 C 775.35 509.62 723.18 489.75 723.18 444.59 C 723.18 399.43 693.36 421.10 674.73 379.59 C 656.10 338.08 658.00 319.94 631.94 307.30 C 605.88 294.66 585.36 292.85 585.36 292.85 Z" fill="#f8cc77" fill-rule="nonzero" group-id="2" node-id="106" stroke="none" target-height="875.52" target-width="855.25" target-x="158.64" target-y="165.16"></path><path d="M 528.59 967.72 C 528.59 967.72 546.67 951.72 564.88 950.53 C 582.18 949.15 598.88 957.17 608.62 971.53 C 608.62 971.53 623.62 949.33 650.42 950.42 C 665.94 950.86 680.30 958.71 689.05 971.53 C 689.05 971.53 685.23 942.88 703.38 935.24 C 721.53 927.60 730.12 935.24 730.12 935.24 C 730.12 935.24 725.35 903.72 733.94 894.16 C 742.53 884.60 765.88 882.89 796.44 891.49 C 827.00 900.09 859.07 895.12 889.63 986.81 C 920.19 1078.50 928.79 1159.70 928.79 1159.70 L 316.54 1181.70 C 316.54 1181.70 244.91 1168.33 245.86 1165.47 C 246.81 1162.61 317.50 932.38 357.61 912.32 L 397.73 892.26 C 397.73 892.26 453.56 888.82 472.23 903.26 C 493.23 919.50 490.38 937.17 490.38 937.17 C 490.38 937.17 495.90 931.71 509.96 936.69 C 532.88 944.80 528.59 967.72 528.59 967.72 Z" fill="#131212" fill-rule="nonzero" group-id="2" node-id="108" stroke="#370911" stroke-linecap="butt" stroke-width="14" target-height="298.80994" target-width="683.88" target-x="244.91" target-y="882.89"></path></g></g><g clip-path="url(#clip-path-3)" group-id="3" id="sillyvg_g_2" node-id="111"><path d="M -775.91 872.61 C -775.91 872.61 -770.29 897.87 -760.00 897.87 C -749.71 897.87 -652.42 896.00 -612.19 897.87 C -571.96 899.74 -515.83 895.07 -515.83 885.24 L -515.83 853.90 C -515.83 853.90 -482.15 858.99 -474.67 876.09 C -467.19 893.19 -475.61 907.23 -469.99 914.71 C -464.37 922.19 -398.89 946.52 -363.34 968.04 C -327.79 989.56 -69.59 1044.75 -69.59 1044.75 L -6.00 1056.91 L 18.32 1393.69 L -1265.20 1339.43 L -1255.84 1071.88 C -1255.84 1071.88 -956.48 1001.71 -922.84 999.88 C -889.20 998.05 -932.20 969.95 -887.29 962.46 C -842.38 954.97 -819.00 941.88 -803.10 938.14 C -787.20 934.40 -801.23 894.14 -795.61 886.69 C -789.99 879.24 -775.91 872.61 -775.91 872.61 Z" fill="#040000" fill-rule="nonzero" group-id="3" node-id="113" stroke="#360810" stroke-linecap="round" stroke-width="14" target-height="539.7899" target-width="1283.5199" target-x="-1265.2" target-y="853.9"></path></g></svg>