<?xml version="1.0" standalone="no"?><!DOCTYPE svg PUBLIC "-//W3C//DTD SVG 1.1//EN" "http://www.w3.org/Graphics/SVG/1.1/DTD/svg11.dtd"><svg height="1200" node-id="1" sillyvg="true" template-height="1200" template-width="1200" version="1.1" viewBox="0 0 1200 1200" width="1200" xmlns="http://www.w3.org/2000/svg" xmlns:xlink="http://www.w3.org/1999/xlink"><defs node-id="36"><clipPath id="clip-path" node-id="5"><path d="M 1062.13 -633.29 C 1062.13 -510.73 1013.44 -393.18 926.78 -306.51 C 840.11 -219.85 722.56 -171.16 600.00 -171.16 C 477.44 -171.16 359.89 -219.85 273.22 -306.51 C 186.56 -393.18 137.87 -510.73 137.87 -633.29 C 137.87 -755.85 186.56 -873.40 273.22 -960.07 C 359.89 -1046.73 477.44 -1095.42 600.00 -1095.42 C 722.56 -1095.42 840.11 -1046.73 926.78 -960.07 C 1013.44 -873.40 1062.13 -755.85 1062.13 -633.29 Z" fill="#000000" fill-rule="nonzero" node-id="39" stroke="none" target-height="924.25995" target-width="924.26" target-x="137.87" target-y="-1095.4199"></path></clipPath><clipPath id="clip-path-2" node-id="7"><path d="M 1062.13 600.00 C 1062.13 722.56 1013.44 840.11 926.78 926.78 C 840.11 1013.44 722.56 1062.13 600.00 1062.13 C 477.44 1062.13 359.89 1013.44 273.22 926.78 C 186.56 840.11 137.87 722.56 137.87 600.00 C 137.87 477.44 186.56 359.89 273.22 273.22 C 359.89 186.56 477.44 137.87 600.00 137.87 C 722.56 137.87 840.11 186.56 926.78 273.22 C 1013.44 359.89 1062.13 477.44 1062.13 600.00 Z" fill="#000000" fill-rule="nonzero" node-id="43" stroke="none" target-height="924.26" target-width="924.26" target-x="137.87" target-y="137.87"></path></clipPath></defs><path d="M 1062.13 600.00 C 1062.13 722.56 1013.44 840.11 926.78 926.78 C 840.11 1013.44 722.56 1062.13 600.00 1062.13 C 477.44 1062.13 359.89 1013.44 273.22 926.78 C 186.56 840.11 137.87 722.56 137.87 600.00 C 137.87 477.44 186.56 359.89 273.22 273.22 C 359.89 186.56 477.44 137.87 600.00 137.87 C 722.56 137.87 840.11 186.56 926.78 273.22 C 1013.44 359.89 1062.13 477.44 1062.13 600.00 Z" fill="#a68c8c" fill-rule="nonzero" node-id="47" stroke="none" target-height="924.26" target-width="924.26" target-x="137.87" target-y="137.87"></path><g node-id="96"><g clip-path="url(#clip-path)" group-id="1" id="sillyvg_g_0" node-id="49"><path d="M 1142.37 -146.69 C 1142.37 -44.69 1085.23 53.14 983.51 125.27 C 881.80 197.40 743.85 237.92 600.00 237.92 C 456.15 237.92 318.20 197.40 216.49 125.27 C 114.77 53.14 57.63 -44.69 57.63 -146.69 C 57.63 -248.69 114.77 -346.52 216.49 -418.65 C 318.20 -490.78 456.15 -531.30 600.00 -531.30 C 743.85 -531.30 881.80 -490.78 983.51 -418.65 C 1085.23 -346.52 1142.37 -248.69 1142.37 -146.69 Z" fill="#8688b4" fill-rule="nonzero" group-id="1" node-id="51" stroke="#360810" stroke-linecap="round" stroke-width="16" target-height="769.22" target-width="1084.74" target-x="57.630005" target-y="-531.3"></path></g></g><g clip-path="url(#clip-path-2)" group-id="2" id="sillyvg_g_1" node-id="54"><path d="M 485.14 790.82 L 481.25 1132.20 L 601.29 1136.91 L 718.75 1148.46 L 710.40 794.81 L 505.35 788.04 L 485.14 790.82 Z" fill="#eab9b1" fill-rule="nonzero" group-id="2" node-id="56" stroke="#370911" stroke-linecap="butt" stroke-width="14" target-height="360.41998" target-width="237.49997" target-x="481.25003" target-y="788.04"></path><path d="M 899.47 594.00 C 899.47 633.85 873.38 672.15 841.19 672.15 C 809.00 672.15 782.92 639.85 782.92 600.00 C 782.92 560.15 816.01 527.85 848.19 527.85 C 880.37 527.85 899.47 554.15 899.47 594.00 Z" fill="#fde9d1" fill-rule="nonzero" group-id="2" node-id="58" stroke="#370911" stroke-linecap="round" stroke-width="14" target-height="144.30005" target-width="116.54999" target-x="782.92" target-y="527.85"></path><path d="M 418.08 600.00 C 418.08 639.85 392.31 672.15 360.52 672.15 C 328.73 672.15 302.00 633.85 302.00 594.00 C 302.00 554.15 321.85 527.85 353.64 527.85 C 385.43 527.85 418.08 560.15 418.08 600.00 Z" fill="#fde9d1" fill-rule="nonzero" group-id="2" node-id="60" stroke="#370911" stroke-linecap="round" stroke-width="14" target-height="144.30005" target-width="116.07999" target-x="302" target-y="527.85"></path><path d="M 843.28 559.30 C 843.28 714.72 734.86 840.72 601.11 840.72 C 467.36 840.72 358.94 714.72 358.94 559.30 C 358.94 403.88 467.36 277.88 601.11 277.88 C 734.86 277.88 843.28 403.88 843.28 559.30 Z" fill="#f9d9d0" fill-rule="nonzero" group-id="2" node-id="62" stroke="#370911" stroke-linecap="butt" stroke-width="14" target-height="562.83997" target-width="484.33997" target-x="358.94" target-y="277.87997"></path><path d="M 545.08 533.92 C 545.08 548.75 533.06 560.77 518.24 560.77 C 503.42 560.77 491.40 548.75 491.40 533.92 C 491.40 519.09 503.42 507.07 518.24 507.07 C 525.36 507.07 532.19 509.90 537.22 514.93 C 542.25 519.97 545.08 526.80 545.08 533.92 Z" fill="#271d1f" fill-rule="nonzero" group-id="2" node-id="64" stroke="none" target-height="53.69998" target-width="53.680023" target-x="491.4" target-y="507.06998"></path><path d="M 708.60 533.92 C 708.60 548.75 696.58 560.77 681.76 560.77 C 666.94 560.77 654.92 548.75 654.92 533.92 C 654.92 526.80 657.75 519.97 662.78 514.93 C 667.81 509.90 674.64 507.07 681.76 507.07 C 688.88 507.07 695.71 509.90 700.74 514.93 C 705.77 519.97 708.60 526.80 708.60 533.92 Z" fill="#271d1f" fill-rule="nonzero" group-id="2" node-id="66" stroke="none" target-height="53.69998" target-width="53.680054" target-x="654.92" target-y="507.06998"></path><path d="M 499.68 643.05 C 499.68 670.40 477.50 692.58 450.15 692.58 C 422.80 692.58 400.62 670.40 400.62 643.05 C 400.62 615.70 422.80 593.52 450.15 593.52 C 477.50 593.52 499.68 615.70 499.68 643.05 Z" fill="#de717e" fill-rule="nonzero" group-id="2" node-id="68" stroke="none" target-height="99.05994" target-width="99.06" target-x="400.62003" target-y="593.52"></path><path d="M 799.38 643.05 C 799.38 670.40 777.20 692.58 749.85 692.58 C 722.50 692.58 700.32 670.40 700.32 643.05 C 700.32 615.70 722.50 593.52 749.85 593.52 C 777.20 593.52 799.38 615.70 799.38 643.05 Z" fill="#de717e" fill-rule="nonzero" group-id="2" node-id="70" stroke="none" target-height="99.05994" target-width="99.06012" target-x="700.3199" target-y="593.52"></path><path d="M 594.85 533.39 C 594.85 533.39 621.00 559.71 621.00 570.55 C 621.00 581.39 594.85 600.00 594.85 600.00" fill="none" group-id="2" node-id="72" stroke="#231815" stroke-linecap="round" stroke-width="16" target-height="66.609985" target-width="26.150024" target-x="594.85" target-y="533.39"></path><path d="M 647.14 449.30 C 647.14 449.30 653.47 435.88 689.63 442.02 C 716.96 446.66 723.34 460.40 723.34 460.40" fill="none" group-id="2" node-id="74" stroke="#ffffff" stroke-linecap="round" stroke-width="20" target-height="24.519989" target-width="76.20001" target-x="647.14" target-y="435.88"></path><path d="M 552.86 449.30 C 552.86 449.30 546.53 435.88 510.37 442.02 C 483.04 446.66 476.66 460.40 476.66 460.40" fill="none" group-id="2" node-id="76" stroke="#ffffff" stroke-linecap="round" stroke-width="20" target-height="24.519989" target-width="76.19998" target-x="476.66" target-y="435.88"></path><path d="M 364.18 339.24 C 364.18 339.24 339.43 264.15 388.11 246.00 C 436.79 227.85 448.36 237.75 448.36 237.75 C 448.36 237.75 458.26 206.39 510.25 202.26 C 562.24 198.13 574.62 214.64 574.62 214.64 C 574.62 214.64 595.25 166.78 646.42 174.20 C 697.59 181.62 704.18 230.32 704.18 230.32 C 704.18 230.32 737.18 204.74 787.53 235.27 C 837.88 265.80 819.72 304.59 819.72 304.59 C 819.72 304.59 873.36 287.26 891.51 335.13 C 909.66 383.00 892.34 411.87 892.34 411.87 C 892.34 411.87 935.21 417.37 947.03 461.39 C 957.23 499.39 935.30 536.31 914.49 556.70 C 914.49 556.70 891.25 524.70 869.85 533.61 C 858.03 538.52 871.85 574.83 864.64 574.51 C 814.39 572.22 821.37 529.88 821.37 529.88 C 821.37 529.88 808.99 522.46 773.50 503.48 C 738.01 484.50 749.57 445.71 749.57 445.71 C 749.57 445.71 729.77 463.86 692.63 453.96 C 655.49 444.06 636.51 410.22 636.51 410.22 C 636.51 410.22 622.51 461.39 573.80 458.91 C 525.09 456.43 501.17 427.55 501.17 427.55 C 501.17 427.55 504.47 463.04 476.42 477.89 C 448.37 492.74 418.65 481.19 418.65 481.19 C 418.65 481.19 426.42 510.06 402.97 537.31 C 388.55 554.07 363.14 551.39 363.14 551.39 C 363.14 551.39 356.86 519.02 327.14 530.58 C 297.42 542.14 291.04 583.46 291.04 583.46 C 291.04 583.46 262.67 573.62 264.32 539.79 C 265.97 505.96 279.17 500.18 279.17 500.18 C 279.17 500.18 238.74 482.85 254.42 444.06 C 270.10 405.27 289.90 399.50 289.90 399.50 C 289.90 399.50 278.35 358.23 305.58 344.20 C 332.81 330.17 364.18 339.24 364.18 339.24 Z" fill="#ffffff" fill-rule="nonzero" group-id="2" node-id="78" stroke="none" target-height="416.68002" target-width="718.49" target-x="238.74" target-y="166.78"></path><path d="M 692.17 696.07 L 658.88 672.07" fill="none" group-id="2" node-id="80" stroke="#231815" stroke-linecap="round" stroke-width="15" target-height="24" target-width="33.29004" target-x="658.88" target-y="672.07"></path><path d="M 543.53 687.55 C 543.53 687.55 564.43 727.81 607.00 727.00 C 649.57 726.19 672.00 687.52 672.00 687.52" fill="none" group-id="2" node-id="82" stroke="#231815" stroke-linecap="butt" stroke-width="15" target-height="40.289917" target-width="128.46997" target-x="543.53" target-y="687.52"></path><path d="M 523.67 696.07 L 556.96 672.07" fill="none" group-id="2" node-id="84" stroke="#231815" stroke-linecap="round" stroke-width="15" target-height="24" target-width="33.29004" target-x="523.67" target-y="672.07"></path><path d="M 507.48 1225.45 C 507.48 1225.45 548.48 1270.35 597.29 1264.93 C 646.10 1259.51 692.52 1189.06 692.52 1181.32 C 692.52 1173.58 620.52 889.19 620.52 889.19 L 584.90 889.19 Z" fill="#f0dfed" fill-rule="nonzero" group-id="2" node-id="86" stroke="#370911" stroke-linecap="butt" stroke-width="14" target-height="381.15997" target-width="185.04007" target-x="507.48" target-y="889.19"></path><path d="M 622.16 908.09 L 659.32 1284.68 L 1037.13 1088.47 C 1037.13 1088.47 904.74 923.57 794.00 876.63 C 743.00 855.00 708.10 839.57 694.94 847.70 C 681.78 855.83 645.23 888.24 645.23 888.24 Z" fill="#e13e3b" fill-rule="nonzero" group-id="2" node-id="88" stroke="#370911" stroke-linecap="round" stroke-width="14" target-height="445.11005" target-width="414.97003" target-x="622.16" target-y="839.57"></path><path d="M 687.93 833.71 C 677.80 837.84 652.98 875.14 643.93 879.02 C 634.88 882.90 607.69 887.44 607.69 887.44 C 607.69 887.44 634.23 965.11 678.89 948.28 C 723.55 931.45 721.61 879.02 722.89 862.84 C 724.17 846.66 718.76 810.55 718.76 810.55 C 718.76 810.55 698.21 829.53 687.93 833.71 Z" fill="#ffffff" fill-rule="nonzero" group-id="2" node-id="90" stroke="#370911" stroke-linecap="round" stroke-width="14" target-height="154.56" target-width="116.48004" target-x="607.69" target-y="810.55"></path><path d="M 573.72 908.09 L 536.56 1284.68 L 158.76 1088.47 C 158.76 1088.47 291.14 923.57 401.85 876.63 C 452.85 854.98 487.79 839.57 500.95 847.70 C 514.11 855.83 550.66 888.24 550.66 888.24 Z" fill="#e13e3b" fill-rule="nonzero" group-id="2" node-id="92" stroke="#370911" stroke-linecap="round" stroke-width="14" target-height="445.11005" target-width="414.95996" target-x="158.76" target-y="839.57"></path><path d="M 508.00 833.71 C 518.93 833.71 542.95 875.14 552.00 879.02 C 561.05 882.90 588.25 887.44 588.25 887.44 C 588.25 887.44 561.71 965.11 517.05 948.28 C 472.39 931.45 474.30 879.00 473.00 862.84 C 471.70 846.68 470.81 803.19 470.81 803.19 C 470.81 803.19 497.00 833.71 508.00 833.71 Z" fill="#ffffff" fill-rule="nonzero" group-id="2" node-id="94" stroke="#370911" stroke-linecap="round" stroke-width="14" target-height="161.92004" target-width="117.44" target-x="470.81" target-y="803.18994"></path></g></svg>