<?xml version="1.0" standalone="no"?><!DOCTYPE svg PUBLIC "-//W3C//DTD SVG 1.1//EN" "http://www.w3.org/Graphics/SVG/1.1/DTD/svg11.dtd"><svg height="1200" node-id="1" sillyvg="true" template-height="1200" template-width="1200" version="1.1" viewBox="0 0 1200 1200" width="1200" xmlns="http://www.w3.org/2000/svg" xmlns:xlink="http://www.w3.org/1999/xlink"><defs node-id="51"><clipPath id="clip-path" node-id="5"><path d="M 1062.13 -640.26 C 1062.13 -517.70 1013.44 -400.15 926.78 -313.48 C 840.11 -226.82 722.56 -178.13 600.00 -178.13 C 477.44 -178.13 359.89 -226.82 273.22 -313.48 C 186.56 -400.15 137.87 -517.70 137.87 -640.26 C 137.87 -762.82 186.56 -880.37 273.22 -967.04 C 359.89 -1053.70 477.44 -1102.39 600.00 -1102.39 C 722.56 -1102.39 840.11 -1053.70 926.78 -967.04 C 1013.44 -880.37 1062.13 -762.82 1062.13 -640.26 Z" fill="#000000" fill-rule="nonzero" node-id="54" stroke="none" target-height="924.26" target-width="924.26" target-x="137.87" target-y="-1102.39"></path></clipPath><clipPath id="clip-path-2" node-id="7"><path d="M 1062.13 600.00 C 1062.13 722.56 1013.44 840.11 926.78 926.78 C 840.11 1013.44 722.56 1062.13 600.00 1062.13 C 477.44 1062.13 359.89 1013.44 273.22 926.78 C 186.56 840.11 137.87 722.56 137.87 600.00 C 137.87 477.44 186.56 359.89 273.22 273.22 C 359.89 186.56 477.44 137.87 600.00 137.87 C 722.56 137.87 840.11 186.56 926.78 273.22 C 1013.44 359.89 1062.13 477.44 1062.13 600.00 Z" fill="#000000" fill-rule="nonzero" node-id="58" stroke="none" target-height="924.26" target-width="924.26" target-x="137.87" target-y="137.87"></path></clipPath></defs><path d="M 1062.13 600.00 C 1062.13 722.56 1013.44 840.11 926.78 926.78 C 840.11 1013.44 722.56 1062.13 600.00 1062.13 C 477.44 1062.13 359.89 1013.44 273.22 926.78 C 186.56 840.11 137.87 722.56 137.87 600.00 C 137.87 477.44 186.56 359.89 273.22 273.22 C 359.89 186.56 477.44 137.87 600.00 137.87 C 722.56 137.87 840.11 186.56 926.78 273.22 C 1013.44 359.89 1062.13 477.44 1062.13 600.00 Z" fill="#f5b9d3" fill-rule="nonzero" node-id="62" stroke="none" target-height="924.26" target-width="924.26" target-x="137.87" target-y="137.87"></path><g node-id="142"><g clip-path="url(#clip-path)" group-id="1" id="sillyvg_g_0" node-id="64"><path d="M 839.16 -261.07 C 882.16 -217.19 980.86 7.13 980.86 7.13 L 597.61 95.39 L 597.61 -148.48 L 734.24 -329.21 C 734.24 -329.21 795.27 -305.82 839.16 -261.07 Z" fill="#404057" fill-rule="nonzero" group-id="1" node-id="66" stroke="#370911" stroke-linecap="butt" stroke-width="14" target-height="424.59998" target-width="383.24994" target-x="597.61" target-y="-329.21"></path><path d="M 351.70 -261.07 C 308.66 -217.19 210.00 7.13 210.00 7.13 L 593.24 95.39 L 593.24 -148.48 L 456.62 -329.21 C 456.62 -329.21 395.58 -305.82 351.70 -261.07 Z" fill="#404057" fill-rule="nonzero" group-id="1" node-id="68" stroke="#370911" stroke-linecap="butt" stroke-width="14" target-height="424.59998" target-width="383.24" target-x="210" target-y="-329.21"></path></g></g><g node-id="143"><g clip-path="url(#clip-path-2)" group-id="2" id="sillyvg_g_1" node-id="71"><path d="M 923.15 1127.92 C 923.15 1325.38 778.47 1485.46 600.00 1485.46 C 421.53 1485.46 276.85 1325.38 276.85 1127.92 C 276.85 930.46 421.53 770.38 600.00 770.38 C 778.47 770.38 923.15 930.46 923.15 1127.92 Z" fill="#ffffff" fill-rule="nonzero" group-id="2" node-id="73" stroke="#370911" stroke-linecap="round" stroke-width="14" target-height="715.0801" target-width="646.30005" target-x="276.85" target-y="770.38"></path><path d="M 852.00 311.93 C 852.00 311.93 913.30 305.77 962.85 361.52 C 1012.40 417.27 1028.02 558.87 1044.91 588.74 C 1061.80 618.61 1192.00 739.32 1192.00 739.32 L 1157.90 861.65 C 1157.90 861.65 973.73 752.91 928.74 712.57 C 860.19 651.09 855.41 510.78 855.41 510.78 L 786.10 415.78 L 763.20 336.73 Z" fill="#f6ad5f" fill-rule="nonzero" group-id="2" node-id="75" stroke="#370911" stroke-linecap="round" stroke-width="14" target-height="555.88" target-width="428.80005" target-x="763.19995" target-y="305.77"></path><path d="M 355.36 311.93 C 355.36 311.93 294.06 305.77 244.51 361.52 C 194.96 417.27 179.34 558.87 162.45 588.74 C 145.56 618.61 15.35 739.32 15.35 739.32 L 49.42 861.65 C 49.42 861.65 233.59 752.91 278.58 712.57 C 347.13 651.09 351.91 510.78 351.91 510.78 L 421.22 415.78 L 444.11 336.73 Z" fill="#f6ad5f" fill-rule="nonzero" group-id="2" node-id="77" stroke="#370911" stroke-linecap="round" stroke-width="14" target-height="555.88" target-width="428.75998" target-x="15.35" target-y="305.77"></path><path d="M 951.43 589.19 C 951.43 636.43 920.50 681.83 882.35 681.83 C 844.20 681.83 813.27 643.54 813.27 596.31 C 813.27 549.08 852.50 510.78 890.65 510.78 C 928.80 510.78 951.43 542.00 951.43 589.19 Z" fill="#fde9d1" fill-rule="nonzero" group-id="2" node-id="79" stroke="#370911" stroke-linecap="butt" stroke-width="14" target-height="171.05002" target-width="138.15991" target-x="813.2701" target-y="510.78"></path><path d="M 387.91 596.31 C 387.91 643.54 356.99 681.83 318.83 681.83 C 280.67 681.83 248.57 636.43 248.57 589.19 C 248.57 541.95 272.38 510.78 310.57 510.78 C 348.76 510.78 387.91 549.07 387.91 596.31 Z" fill="#fde9d1" fill-rule="nonzero" group-id="2" node-id="81" stroke="#370911" stroke-linecap="butt" stroke-width="14" target-height="171.05002" target-width="139.34001" target-x="248.56999" target-y="510.78"></path><path d="M 859.68 557.93 C 859.68 701.35 743.42 817.61 600.00 817.61 C 456.58 817.61 340.32 701.35 340.32 557.93 C 340.32 414.51 456.58 298.25 600.00 298.25 C 743.42 298.25 859.68 414.51 859.68 557.93 Z" fill="#f9d9d0" fill-rule="nonzero" group-id="2" node-id="83" stroke="#370911" stroke-linecap="butt" stroke-width="14" target-height="519.36" target-width="519.36005" target-x="340.32" target-y="298.25"></path><path d="M 720.74 551.57 C 720.74 567.96 707.65 581.24 691.51 581.24 C 675.37 581.24 662.28 567.96 662.28 551.57 C 662.28 535.18 675.37 521.90 691.51 521.90 C 707.65 521.90 720.74 535.18 720.74 551.57 Z" fill="#271d1f" fill-rule="nonzero" group-id="2" node-id="85" stroke="none" target-height="59.339966" target-width="58.460022" target-x="662.28" target-y="521.9"></path><path d="M 537.72 551.57 C 537.72 567.96 524.63 581.24 508.49 581.24 C 492.35 581.24 479.26 567.96 479.26 551.57 C 479.26 535.18 492.35 521.90 508.49 521.90 C 524.63 521.90 537.72 535.18 537.72 551.57 Z" fill="#271d1f" fill-rule="nonzero" group-id="2" node-id="87" stroke="none" target-height="59.339966" target-width="58.45999" target-x="479.25998" target-y="521.9"></path><path d="M 490.75 650.13 C 490.75 664.44 485.07 678.16 474.95 688.28 C 464.83 698.40 451.11 704.08 436.80 704.08 C 422.49 704.08 408.77 698.40 398.65 688.28 C 388.53 678.16 382.85 664.44 382.85 650.13 C 382.85 635.82 388.53 622.10 398.65 611.98 C 408.77 601.86 422.49 596.18 436.80 596.18 C 451.11 596.18 464.83 601.86 474.95 611.98 C 485.07 622.10 490.75 635.82 490.75 650.13 Z" fill="#de717e" fill-rule="nonzero" group-id="2" node-id="89" stroke="none" target-height="107.900024" target-width="107.900024" target-x="382.84998" target-y="596.18"></path><path d="M 817.15 650.13 C 817.15 664.44 811.47 678.16 801.35 688.28 C 791.23 698.40 777.51 704.08 763.20 704.08 C 748.89 704.08 735.17 698.40 725.05 688.28 C 714.93 678.16 709.25 664.44 709.25 650.13 C 709.25 635.82 714.93 622.10 725.05 611.98 C 735.17 601.86 748.89 596.18 763.20 596.18 C 777.51 596.18 791.23 601.86 801.35 611.98 C 811.47 622.10 817.15 635.82 817.15 650.13 Z" fill="#de717e" fill-rule="nonzero" group-id="2" node-id="91" stroke="none" target-height="107.900024" target-width="107.900024" target-x="709.25" target-y="596.18"></path><path d="M 528.20 651.09 C 533.72 686.47 564.19 712.55 600.00 712.55 C 635.81 712.55 666.28 686.47 671.80 651.09 Z" fill="#ee8685" fill-rule="nonzero" group-id="2" node-id="93" stroke="#310304" stroke-linecap="butt" stroke-width="10" target-height="61.458923" target-width="143.59998" target-x="528.2" target-y="651.09"></path><path d="M 339.00 521.83 C 339.00 521.83 436.55 540.41 483.00 498.60 C 529.45 456.79 538.74 419.60 538.74 419.60 C 538.74 419.60 541.74 470.70 599.45 493.93 C 657.16 517.16 720.74 452.10 720.74 452.10 C 720.74 452.10 740.82 528.79 782.62 540.41 C 824.42 552.03 859.27 540.41 859.27 540.41 C 859.27 540.41 882.35 298.24 696.69 259.41 C 507.51 219.80 463.42 262.41 415.69 298.21 C 306.29 380.10 339.00 521.83 339.00 521.83 Z" fill="#f6ad5f" fill-rule="nonzero" group-id="2" node-id="95" stroke="#370911" stroke-linecap="round" stroke-width="14" target-height="332.23004" target-width="576.05994" target-x="306.29" target-y="219.8"></path><path d="M 604.35 849.26 C 604.35 849.26 669.35 780.35 744.48 780.35 C 819.61 780.35 873.64 818.29 846.61 871.71 C 827.17 910.14 706.70 903.71 640.61 897.05 C 614.82 894.46 597.31 891.84 597.31 891.84 Z" fill="#e13e3b" fill-rule="nonzero" group-id="2" node-id="97" stroke="#370911" stroke-linecap="round" stroke-width="14" target-height="129.79004" target-width="276.33002" target-x="597.31" target-y="780.35004"></path><path d="M 320.89 416.31 C 320.89 416.31 302.44 373.60 335.60 372.31 C 369.83 370.98 354.60 413.86 354.60 413.86 C 354.60 413.86 385.86 383.38 397.45 404.31 C 413.18 432.69 369.21 438.37 369.21 438.37 C 369.21 438.37 406.47 449.21 389.38 474.53 C 371.75 500.64 345.15 454.27 345.15 454.27 C 345.15 454.27 359.00 506.00 324.82 498.74 C 287.17 490.74 324.82 449.74 324.82 449.74 C 324.82 449.74 279.99 468.58 281.82 431.41 C 283.09 404.47 320.89 416.31 320.89 416.31 Z" fill="#ffffff" fill-rule="nonzero" group-id="2" node-id="99" stroke="#370911" stroke-linecap="round" stroke-width="11" target-height="135.01999" target-width="133.19" target-x="279.99" target-y="370.98"></path><path d="M 359.66 433.21 C 359.66 437.83 357.82 442.26 354.56 445.53 C 351.29 448.79 346.86 450.63 342.24 450.63 C 337.62 450.63 333.19 448.79 329.92 445.53 C 326.66 442.26 324.82 437.83 324.82 433.21 C 324.82 428.59 326.66 424.16 329.92 420.89 C 333.19 417.63 337.62 415.79 342.24 415.79 C 346.86 415.79 351.29 417.63 354.56 420.89 C 357.82 424.16 359.66 428.59 359.66 433.21 Z" fill="#f6ad5f" fill-rule="nonzero" group-id="2" node-id="101" stroke="none" target-height="34.839996" target-width="34.840027" target-x="324.81998" target-y="415.79"></path><path d="M 380.44 285.60 C 380.44 285.60 361.99 242.89 395.15 241.60 C 429.38 240.26 414.15 283.14 414.15 283.14 C 414.15 283.14 445.40 252.67 456.99 273.60 C 472.73 301.98 428.75 307.66 428.75 307.66 C 428.75 307.66 466.00 318.50 448.89 343.82 C 431.26 369.93 404.66 323.55 404.66 323.55 C 404.66 323.55 418.50 375.27 384.36 368.03 C 346.71 360.03 384.36 319.03 384.36 319.03 C 384.36 319.03 339.53 337.86 341.36 300.70 C 342.63 273.76 380.44 285.60 380.44 285.60 Z" fill="#ffffff" fill-rule="nonzero" group-id="2" node-id="103" stroke="#370911" stroke-linecap="round" stroke-width="11" target-height="135.01" target-width="133.20001" target-x="339.53" target-y="240.26"></path><path d="M 419.20 302.50 C 419.20 307.12 417.36 311.55 414.10 314.82 C 410.83 318.08 406.40 319.92 401.78 319.92 C 397.16 319.92 392.73 318.08 389.46 314.82 C 386.20 311.55 384.36 307.12 384.36 302.50 C 384.36 297.88 386.20 293.45 389.46 290.18 C 392.73 286.92 397.16 285.08 401.78 285.08 C 406.40 285.08 410.83 286.92 414.10 290.18 C 417.36 293.45 419.20 297.88 419.20 302.50 Z" fill="#f6ad5f" fill-rule="nonzero" group-id="2" node-id="105" stroke="none" target-height="34.840027" target-width="34.840027" target-x="384.36" target-y="285.08"></path><path d="M 510.10 222.00 C 510.10 222.00 491.65 179.30 524.81 178.00 C 559.04 176.67 543.81 219.55 543.81 219.55 C 543.81 219.55 575.00 189.09 586.63 210.00 C 602.36 238.39 558.39 244.07 558.39 244.07 C 558.39 244.07 595.65 254.91 578.56 280.23 C 560.93 306.35 534.32 260.00 534.32 260.00 C 534.32 260.00 548.17 311.72 514.03 304.48 C 476.38 296.48 514.03 255.48 514.03 255.48 C 514.03 255.48 469.20 274.32 471.03 237.16 C 472.30 210.18 510.10 222.00 510.10 222.00 Z" fill="#ffffff" fill-rule="nonzero" group-id="2" node-id="107" stroke="#370911" stroke-linecap="round" stroke-width="11" target-height="135.05" target-width="133.16" target-x="469.19998" target-y="176.67"></path><path d="M 548.87 238.92 C 548.87 248.54 541.07 256.34 531.45 256.34 C 521.83 256.34 514.03 248.54 514.03 238.92 C 514.03 229.30 521.83 221.50 531.45 221.50 C 541.07 221.50 548.87 229.30 548.87 238.92 Z" fill="#f6ad5f" fill-rule="nonzero" group-id="2" node-id="109" stroke="none" target-height="34.839996" target-width="34.839966" target-x="514.03" target-y="221.5"></path><path d="M 651.42 230.00 C 651.42 230.00 633.00 187.26 666.13 186.00 C 700.36 184.67 685.13 227.55 685.13 227.55 C 685.13 227.55 716.39 197.08 727.98 218.00 C 743.67 246.36 699.70 252.00 699.70 252.00 C 699.70 252.00 737.00 262.88 719.87 288.20 C 702.24 314.31 675.64 267.93 675.64 267.93 C 675.64 267.93 689.48 319.65 655.34 312.41 C 617.69 304.41 655.34 263.41 655.34 263.41 C 655.34 263.41 610.51 282.25 612.34 245.09 C 613.61 218.14 651.42 230.00 651.42 230.00 Z" fill="#ffffff" fill-rule="nonzero" group-id="2" node-id="111" stroke="#370911" stroke-linecap="round" stroke-width="11" target-height="134.98" target-width="133.15997" target-x="610.51" target-y="184.67"></path><path d="M 690.18 246.88 C 690.18 256.50 682.38 264.30 672.76 264.30 C 663.14 264.30 655.34 256.50 655.34 246.88 C 655.34 237.26 663.14 229.46 672.76 229.46 C 682.38 229.46 690.18 237.26 690.18 246.88 Z" fill="#f6ad5f" fill-rule="nonzero" group-id="2" node-id="113" stroke="none" target-height="34.84001" target-width="34.839966" target-x="655.34" target-y="229.46"></path><path d="M 792.89 292.38 C 792.89 292.38 774.44 249.67 807.60 248.38 C 841.83 247.05 826.60 289.93 826.60 289.93 C 826.60 289.93 857.85 259.46 869.44 280.38 C 885.18 308.77 841.20 314.45 841.20 314.45 C 841.20 314.45 878.47 325.29 861.37 350.60 C 843.74 376.72 817.14 330.34 817.14 330.34 C 817.14 330.34 830.98 382.06 796.84 374.82 C 759.19 366.82 796.84 325.82 796.84 325.82 C 796.84 325.82 752.01 344.66 753.84 307.50 C 755.08 280.55 792.89 292.38 792.89 292.38 Z" fill="#ffffff" fill-rule="nonzero" group-id="2" node-id="115" stroke="#370911" stroke-linecap="round" stroke-width="11" target-height="135.01001" target-width="133.16998" target-x="752.01" target-y="247.04999"></path><path d="M 831.65 309.29 C 831.65 318.91 823.85 326.71 814.23 326.71 C 804.61 326.71 796.81 318.91 796.81 309.29 C 796.81 299.67 804.61 291.87 814.23 291.87 C 823.85 291.87 831.65 299.67 831.65 309.29 Z" fill="#f6ad5f" fill-rule="nonzero" group-id="2" node-id="117" stroke="none" target-height="34.840027" target-width="34.839905" target-x="796.81006" target-y="291.87"></path><path d="M 825.27 428.43 C 825.27 428.43 806.81 385.72 839.97 384.43 C 874.20 383.10 858.97 425.98 858.97 425.98 C 858.97 425.98 890.23 395.51 901.82 416.43 C 917.55 444.82 873.58 450.50 873.58 450.50 C 873.58 450.50 910.84 461.33 893.75 486.65 C 876.12 512.76 849.52 466.39 849.52 466.39 C 849.52 466.39 863.36 518.11 829.22 510.87 C 791.57 502.87 829.22 461.87 829.22 461.87 C 829.22 461.87 784.39 480.71 786.22 443.55 C 787.46 416.59 825.27 428.43 825.27 428.43 Z" fill="#ffffff" fill-rule="nonzero" group-id="2" node-id="119" stroke="#370911" stroke-linecap="round" stroke-width="11" target-height="135.01001" target-width="133.15997" target-x="784.38995" target-y="383.09998"></path><path d="M 864.03 445.33 C 864.03 454.95 856.23 462.75 846.61 462.75 C 836.99 462.75 829.19 454.95 829.19 445.33 C 829.19 435.71 836.99 427.91 846.61 427.91 C 856.23 427.91 864.03 435.71 864.03 445.33 Z" fill="#f6ad5f" fill-rule="nonzero" group-id="2" node-id="121" stroke="none" target-height="34.839996" target-width="34.839966" target-x="829.19" target-y="427.90997"></path><path d="M 864.00 583.32 C 864.00 583.32 880.00 569.77 892.74 574.00 C 900.65 576.80 907.53 581.93 912.48 588.71" fill="none" group-id="2" node-id="123" stroke="#370911" stroke-linecap="round" stroke-width="14" target-height="18.940002" target-width="48.47998" target-x="864" target-y="569.77"></path><path d="M 342.47 583.32 C 342.47 583.32 326.53 569.77 313.76 574.03 C 305.84 576.83 298.96 581.96 294.00 588.74" fill="none" group-id="2" node-id="125" stroke="#370911" stroke-linecap="round" stroke-width="14" target-height="18.96997" target-width="48.47" target-x="294" target-y="569.77"></path><path d="M 727.81 1081.52 C 733.75 1130.29 643.17 1111.71 643.17 1111.71 C 643.17 1111.71 637.29 981.65 619.33 942.16 C 601.37 902.67 607.07 875.56 607.07 875.56 L 647.82 861.65 Z" fill="#e13e3b" fill-rule="nonzero" group-id="2" node-id="127" stroke="#370911" stroke-linecap="round" stroke-width="14" target-height="268.64" target-width="132.38" target-x="601.37" target-y="861.65"></path><path d="M 611.43 849.26 C 611.43 849.26 676.43 780.35 751.56 780.35 C 826.69 780.35 880.71 818.29 853.68 871.71 C 834.24 910.14 713.77 903.71 647.68 897.05 C 621.89 894.46 604.38 891.84 604.38 891.84 Z" fill="#e13e3b" fill-rule="nonzero" group-id="2" node-id="129" stroke="#370911" stroke-linecap="round" stroke-width="14" target-height="129.79004" target-width="276.33002" target-x="604.38" target-y="780.35004"></path><path d="M 472.19 1081.52 C 466.25 1130.29 556.83 1111.71 556.83 1111.71 C 556.83 1111.71 562.71 981.65 580.67 942.16 C 598.63 902.67 592.93 875.56 592.93 875.56 L 552.18 861.65 Z" fill="#e13e3b" fill-rule="nonzero" group-id="2" node-id="131" stroke="#370911" stroke-linecap="round" stroke-width="14" target-height="268.64" target-width="132.38" target-x="466.25" target-y="861.65"></path><path d="M 588.57 849.26 C 588.57 849.26 523.57 780.35 448.44 780.35 C 373.31 780.35 319.29 818.29 346.32 871.71 C 365.76 910.14 486.23 903.71 552.32 897.05 C 578.11 894.46 595.62 891.84 595.62 891.84 Z" fill="#e13e3b" fill-rule="nonzero" group-id="2" node-id="133" stroke="#370911" stroke-linecap="round" stroke-width="14" target-height="129.79004" target-width="276.33" target-x="319.29" target-y="780.35004"></path><path d="M 647.82 862.27 C 647.82 872.83 641.89 882.96 631.34 890.43 C 620.79 897.89 606.47 902.09 591.55 902.09 C 576.63 902.09 562.31 897.89 551.76 890.43 C 541.21 882.96 535.28 872.83 535.28 862.27 C 535.28 851.71 541.21 841.58 551.76 834.11 C 562.31 826.65 576.63 822.45 591.55 822.45 C 606.47 822.45 620.79 826.65 631.34 834.11 C 641.89 841.58 647.82 851.71 647.82 862.27 Z" fill="#e13e3b" fill-rule="nonzero" group-id="2" node-id="135" stroke="#370911" stroke-linecap="round" stroke-width="14" target-height="79.640015" target-width="112.54004" target-x="535.27997" target-y="822.45"></path></g></g><path d="M 647.25 856.62 C 647.25 856.62 713.52 821.39 794.81 838.42" fill="#e13e3b" fill-rule="nonzero" node-id="138" stroke="#370911" stroke-linecap="round" stroke-width="14" target-height="35.22992" target-width="147.55994" target-x="647.25" target-y="821.3901"></path><path d="M 534.72 856.62 C 534.72 856.62 468.46 821.39 387.17 838.42" fill="#e13e3b" fill-rule="nonzero" node-id="140" stroke="#370911" stroke-linecap="round" stroke-width="14" target-height="35.22992" target-width="147.54996" target-x="387.17" target-y="821.3901"></path></svg>