<?xml version="1.0" standalone="no"?><!DOCTYPE svg PUBLIC "-//W3C//DTD SVG 1.1//EN" "http://www.w3.org/Graphics/SVG/1.1/DTD/svg11.dtd"><svg height="1200" node-id="1" sillyvg="true" template-height="1200" template-width="1200" version="1.1" viewBox="0 0 1200 1200" width="1200" xmlns="http://www.w3.org/2000/svg" xmlns:xlink="http://www.w3.org/1999/xlink"><defs node-id="34"><clipPath id="clip-path" node-id="5"><path d="M 1062.13 -640.26 C 1062.13 -517.70 1013.44 -400.15 926.78 -313.48 C 840.11 -226.82 722.56 -178.13 600.00 -178.13 C 477.44 -178.13 359.89 -226.82 273.22 -313.48 C 186.56 -400.15 137.87 -517.70 137.87 -640.26 C 137.87 -762.82 186.56 -880.37 273.22 -967.04 C 359.89 -1053.70 477.44 -1102.39 600.00 -1102.39 C 722.56 -1102.39 840.11 -1053.70 926.78 -967.04 C 1013.44 -880.37 1062.13 -762.82 1062.13 -640.26 Z" fill="#000000" fill-rule="nonzero" node-id="37" stroke="none" target-height="924.26" target-width="924.26" target-x="137.87" target-y="-1102.39"></path></clipPath><clipPath id="clip-path-2" node-id="7"><path d="M 1062.13 600.00 C 1062.13 722.56 1013.44 840.11 926.78 926.78 C 840.11 1013.44 722.56 1062.13 600.00 1062.13 C 477.44 1062.13 359.89 1013.44 273.22 926.78 C 186.56 840.11 137.87 722.56 137.87 600.00 C 137.87 477.44 186.56 359.89 273.22 273.22 C 359.89 186.56 477.44 137.87 600.00 137.87 C 722.56 137.87 840.11 186.56 926.78 273.22 C 1013.44 359.89 1062.13 477.44 1062.13 600.00 Z" fill="#000000" fill-rule="nonzero" node-id="41" stroke="none" target-height="924.26" target-width="924.26" target-x="137.87" target-y="137.87"></path></clipPath></defs><path d="M 1062.13 600.00 C 1062.13 722.56 1013.44 840.11 926.78 926.78 C 840.11 1013.44 722.56 1062.13 600.00 1062.13 C 477.44 1062.13 359.89 1013.44 273.22 926.78 C 186.56 840.11 137.87 722.56 137.87 600.00 C 137.87 477.44 186.56 359.89 273.22 273.22 C 359.89 186.56 477.44 137.87 600.00 137.87 C 722.56 137.87 840.11 186.56 926.78 273.22 C 1013.44 359.89 1062.13 477.44 1062.13 600.00 Z" fill="#17a18b" fill-rule="nonzero" node-id="45" stroke="none" target-height="924.26" target-width="924.26" target-x="137.87" target-y="137.87"></path><g node-id="90"><g clip-path="url(#clip-path)" group-id="1" id="sillyvg_g_0" node-id="47"><path d="M 890.00 -271.39 C 867.54 -313.19 726.62 -377.06 726.62 -377.06 L 600.09 -220.90 L 600.70 137.39 L 926.41 125.77 C 926.41 125.77 912.47 -229.58 890.00 -271.39 Z" fill="#ffffff" fill-rule="nonzero" group-id="1" node-id="49" stroke="#370911" stroke-linecap="butt" stroke-width="14" target-height="514.45" target-width="326.3199" target-x="600.09" target-y="-377.06"></path><path d="M 310.00 -271.39 C 287.54 -229.58 273.60 125.77 273.60 125.77 L 599.30 137.39 L 599.91 -219.90 L 473.37 -377.06 C 473.37 -377.06 332.45 -313.19 310.00 -271.39 Z" fill="#ffffff" fill-rule="nonzero" group-id="1" node-id="51" stroke="#370911" stroke-linecap="butt" stroke-width="14" target-height="514.45" target-width="326.30997" target-x="273.6" target-y="-377.06"></path><path d="M 775.41 -353.09 C 775.41 -353.09 677.34 -158.74 658.00 -132.42 C 638.66 -106.10 609.25 -89.06 609.25 -89.06 L 601.37 44.10 L 855.45 48.74 L 910.26 -140.63 C 910.26 -140.63 910.26 -215.63 895.26 -255.57 C 885.40 -281.82 867.26 -296.14 867.26 -296.14 Z" fill="#e84660" fill-rule="nonzero" group-id="1" node-id="53" stroke="#370911" stroke-linecap="butt" stroke-width="14" target-height="401.83002" target-width="308.88995" target-x="601.37" target-y="-353.09"></path><path d="M 422.56 -353.09 C 422.56 -353.09 520.63 -158.74 540.00 -132.42 C 559.37 -106.10 588.75 -89.06 588.75 -89.06 L 596.59 44.10 L 342.52 48.74 L 287.71 -140.63 C 287.71 -140.63 299.16 -225.23 303.53 -250.18 C 308.37 -277.80 330.74 -296.18 330.74 -296.18 Z" fill="#e84660" fill-rule="nonzero" group-id="1" node-id="55" stroke="#370911" stroke-linecap="butt" stroke-width="14" target-height="401.83002" target-width="308.88004" target-x="287.71" target-y="-353.09"></path></g></g><g clip-path="url(#clip-path-2)" group-id="2" id="sillyvg_g_1" node-id="58"><path d="M 477.37 781.94 L 464.34 946.90 L 622.79 1015.03 L 738.41 965.48 L 729.07 785.93 L 499.95 779.16 L 477.37 781.94 Z" fill="#eab9b1" fill-rule="nonzero" group-id="2" node-id="60" stroke="#370911" stroke-linecap="butt" stroke-width="14" target-height="235.87006" target-width="274.07004" target-x="464.34" target-y="779.16"></path><path d="M 896.47 594.00 C 896.47 633.85 870.38 672.15 838.19 672.15 C 806.00 672.15 779.92 639.85 779.92 600.00 C 779.92 560.15 813.01 527.85 845.19 527.85 C 877.37 527.85 896.47 554.15 896.47 594.00 Z" fill="#fde9d1" fill-rule="nonzero" group-id="2" node-id="62" stroke="#370911" stroke-linecap="butt" stroke-width="14" target-height="144.30005" target-width="116.54993" target-x="779.92004" target-y="527.85"></path><path d="M 421.08 600.00 C 421.08 639.85 394.99 672.15 362.81 672.15 C 330.63 672.15 303.53 633.85 303.53 594.00 C 303.53 554.15 323.62 527.85 355.81 527.85 C 388.00 527.85 421.08 560.15 421.08 600.00 Z" fill="#fde9d1" fill-rule="nonzero" group-id="2" node-id="64" stroke="#370911" stroke-linecap="butt" stroke-width="14" target-height="144.30005" target-width="117.54999" target-x="303.53" target-y="527.85"></path><path d="M 843.28 559.30 C 843.28 714.72 734.86 840.72 601.11 840.72 C 467.36 840.72 358.94 714.72 358.94 559.30 C 358.94 403.88 467.36 277.88 601.11 277.88 C 734.86 277.88 843.28 403.88 843.28 559.30 Z" fill="#f9d9d0" fill-rule="nonzero" group-id="2" node-id="66" stroke="#370911" stroke-linecap="butt" stroke-width="14" target-height="562.83997" target-width="484.33997" target-x="358.94" target-y="277.87997"></path><path d="M 526.95 554.23 C 526.95 570.33 514.93 583.39 500.11 583.39 C 485.29 583.39 473.27 570.33 473.27 554.23 C 473.27 538.13 485.29 525.07 500.11 525.07 C 514.93 525.07 526.95 538.13 526.95 554.23 Z" fill="#271d1f" fill-rule="nonzero" group-id="2" node-id="68" stroke="none" target-height="58.319946" target-width="53.680023" target-x="473.27" target-y="525.07"></path><path d="M 719.46 554.23 C 719.46 570.33 707.44 583.39 692.62 583.39 C 677.80 583.39 665.78 570.33 665.78 554.23 C 665.78 538.13 677.80 525.07 692.62 525.07 C 707.44 525.07 719.46 538.13 719.46 554.23 Z" fill="#271d1f" fill-rule="nonzero" group-id="2" node-id="70" stroke="none" target-height="58.319946" target-width="53.680054" target-x="665.77997" target-y="525.07"></path><path d="M 672.79 684.32 C 672.79 706.27 640.21 724.06 600.02 724.06 C 559.83 724.06 527.25 706.27 527.25 684.32 C 527.25 662.37 559.83 644.58 600.02 644.58 C 640.21 644.58 672.79 662.37 672.79 684.32 Z" fill="#ee8685" fill-rule="nonzero" group-id="2" node-id="72" stroke="#310304" stroke-linecap="butt" stroke-width="10" target-height="79.47998" target-width="145.54004" target-x="527.25" target-y="644.58"></path><path d="M 545.92 705.77 C 559.58 714.02 579.65 719.77 601.62 719.77 C 625.37 719.77 640.40 715.21 654.07 705.77 C 649.69 692.65 629.36 686.45 600.75 686.45 C 570.65 686.45 548.37 691.65 545.92 705.77 Z" fill="#e5415b" fill-rule="nonzero" group-id="2" node-id="74" stroke="none" target-height="33.320007" target-width="108.150024" target-x="545.92" target-y="686.45"></path><path d="M 603.90 672.72 C 636.97 672.72 652.55 671.72 666.20 666.31 C 662.05 652.62 653.89 646.22 599.98 649.13 C 548.98 646.43 538.91 652.24 533.77 664.34 C 545.38 671.47 561.93 672.72 603.90 672.72 Z" fill="#ffffff" fill-rule="nonzero" group-id="2" node-id="76" stroke="none" target-height="26.5" target-width="132.43" target-x="533.77" target-y="646.22"></path><path d="M 499.68 643.05 C 499.68 670.40 477.50 692.58 450.15 692.58 C 422.80 692.58 400.62 670.40 400.62 643.05 C 400.62 615.70 422.80 593.52 450.15 593.52 C 477.50 593.52 499.68 615.70 499.68 643.05 Z" fill="#de717e" fill-rule="nonzero" group-id="2" node-id="78" stroke="none" target-height="99.05994" target-width="99.06" target-x="400.62003" target-y="593.52"></path><path d="M 799.38 643.05 C 799.38 670.40 777.20 692.58 749.85 692.58 C 722.50 692.58 700.32 670.40 700.32 643.05 C 700.32 615.70 722.50 593.52 749.85 593.52 C 777.20 593.52 799.38 615.70 799.38 643.05 Z" fill="#de717e" fill-rule="nonzero" group-id="2" node-id="80" stroke="none" target-height="99.05994" target-width="99.06012" target-x="700.3199" target-y="593.52"></path><path d="M 601.37 204.90 C 594.37 204.97 587.37 205.28 580.29 205.90 C 450.20 216.70 373.00 303.49 351.40 360.70 C 308.57 474.25 351.40 614.25 351.40 614.25 C 351.40 614.25 357.29 647.59 374.33 576.14 C 391.37 504.69 371.23 476.31 385.17 463.41 C 399.11 450.51 388.26 469.09 405.29 435.02 C 422.32 400.95 412.45 358.45 451.75 346.77 C 477.94 339.00 539.90 334.59 601.37 334.00 Z" fill="#3c211a" fill-rule="nonzero" group-id="2" node-id="82" stroke="none" target-height="442.69" target-width="292.8" target-x="308.57" target-y="204.90001"></path><path d="M 601.37 204.90 C 608.37 204.97 615.40 205.30 622.45 205.90 C 752.55 216.74 829.76 303.53 851.35 360.74 C 894.18 474.29 851.35 614.29 851.35 614.29 C 851.35 614.29 845.45 647.63 828.42 576.18 C 811.39 504.73 831.52 476.35 817.58 463.45 C 803.64 450.55 814.49 469.13 797.45 435.06 C 780.41 400.99 790.30 358.45 751.00 346.77 C 724.81 339.00 662.85 334.59 601.37 334.00 Z" fill="#3c211a" fill-rule="nonzero" group-id="2" node-id="84" stroke="none" target-height="442.72998" target-width="292.81" target-x="601.37" target-y="204.90001"></path><path d="M 471.32 872.61 C 471.32 872.61 476.93 897.87 487.22 897.87 C 497.51 897.87 594.81 896.00 635.03 897.87 C 675.25 899.74 731.39 895.07 731.39 885.24 L 731.39 853.90 C 731.39 853.90 765.07 858.99 772.55 876.09 C 780.03 893.19 771.62 907.23 777.23 914.71 C 782.84 922.19 848.33 946.52 883.88 968.04 C 919.43 989.56 1177.63 1044.75 1177.63 1044.75 L 1241.25 1056.91 L 1265.57 1393.69 L -17.95 1339.43 L -8.60 1071.88 C -8.60 1071.88 290.77 1001.71 324.40 999.88 C 358.03 998.05 315.05 969.95 359.95 962.46 C 404.85 954.97 428.25 941.88 444.15 938.14 C 460.05 934.40 446.02 894.14 451.63 886.69 C 457.24 879.24 471.32 872.61 471.32 872.61 Z" fill="#040000" fill-rule="nonzero" group-id="2" node-id="86" stroke="#360810" stroke-linecap="round" stroke-width="14" target-height="539.7899" target-width="1283.5199" target-x="-17.95" target-y="853.9"></path><path d="M 391.50 276.60 C 391.50 276.60 378.65 238.67 412.91 230.71 C 447.17 222.75 463.08 230.71 463.08 230.71 C 463.08 230.71 463.70 224.60 477.16 221.54 C 490.62 218.48 497.35 221.54 497.35 221.54 C 497.35 221.54 494.29 202.54 512.64 203.18 C 530.99 203.82 538.34 203.18 538.34 203.18 C 538.34 203.18 542.01 161.59 579.94 167.09 C 617.87 172.59 632.56 204.42 632.56 204.42 C 632.56 204.42 650.91 189.73 669.27 197.69 C 687.63 205.65 703.53 213.00 703.53 213.00 C 703.53 213.00 738.41 194.65 752.53 208.72 C 766.65 222.79 765.38 245.43 765.38 245.43 C 765.38 245.43 777.56 235.00 791.00 249.68 C 804.44 264.36 810.00 276.60 810.00 276.60 C 810.00 276.60 832.00 250.91 844.26 289.45 C 856.52 327.99 853.44 334.73 853.44 334.73 C 853.44 334.73 890.76 361.65 886.44 407.53 C 882.12 453.41 863.19 470.53 863.19 470.53 C 863.19 470.53 858.91 497.45 831.37 497.45 C 803.83 497.45 782.43 467.45 782.43 467.45 C 782.43 467.45 787.93 480.30 748.78 478.45 C 709.63 476.60 702.89 460.71 702.89 460.71 C 702.89 460.71 699.83 483.96 666.79 470.50 C 633.75 457.04 631.31 444.80 631.31 444.80 C 631.31 444.80 619.07 482.74 576.24 476.62 C 533.41 470.50 521.18 468.05 521.18 468.05 C 521.18 468.05 527.91 438.69 490.59 448.47 C 453.27 458.25 453.27 479.07 453.27 479.07 C 453.27 479.07 446.53 490.07 419.61 488.86 C 392.69 487.65 383.52 484.57 383.52 484.57 C 383.52 484.57 372.52 512.10 356.60 510.27 C 340.68 508.44 330.93 465.00 336.44 451.00 C 341.95 437.00 297.28 403.28 319.31 366.57 C 341.34 329.86 372.53 314.57 372.53 314.57 C 372.53 314.57 369.47 298.67 377.43 292.57 C 385.39 286.47 391.50 276.60 391.50 276.60 Z" fill="#351c14" fill-rule="nonzero" group-id="2" node-id="88" stroke="none" target-height="350.50998" target-width="593.48" target-x="297.28" target-y="161.59"></path></g></svg>