<?xml version="1.0" standalone="no"?><!DOCTYPE svg PUBLIC "-//W3C//DTD SVG 1.1//EN" "http://www.w3.org/Graphics/SVG/1.1/DTD/svg11.dtd"><svg height="1200" node-id="1" sillyvg="true" template-height="1200" template-width="1200" version="1.1" viewBox="0 0 1200 1200" width="1200" xmlns="http://www.w3.org/2000/svg" xmlns:xlink="http://www.w3.org/1999/xlink"><defs node-id="31"><clipPath id="clip-path" node-id="5"><path d="M 1062.13 -647.23 C 1062.13 -524.67 1013.44 -407.12 926.78 -320.45 C 840.11 -233.79 722.56 -185.10 600.00 -185.10 C 477.44 -185.10 359.89 -233.79 273.22 -320.45 C 186.56 -407.12 137.87 -524.67 137.87 -647.23 C 137.87 -769.79 186.56 -887.34 273.22 -974.01 C 359.89 -1060.67 477.44 -1109.36 600.00 -1109.36 C 722.56 -1109.36 840.11 -1060.67 926.78 -974.01 C 1013.44 -887.34 1062.13 -769.79 1062.13 -647.23 Z" fill="#000000" fill-rule="nonzero" node-id="34" stroke="none" target-height="924.26" target-width="924.26" target-x="137.87" target-y="-1109.36"></path></clipPath><clipPath id="clip-path-2" node-id="7"><path d="M 1062.13 600.00 C 1062.13 722.56 1013.44 840.11 926.78 926.78 C 840.11 1013.44 722.56 1062.13 600.00 1062.13 C 477.44 1062.13 359.89 1013.44 273.22 926.78 C 186.56 840.11 137.87 722.56 137.87 600.00 C 137.87 477.44 186.56 359.89 273.22 273.22 C 359.89 186.56 477.44 137.87 600.00 137.87 C 722.56 137.87 840.11 186.56 926.78 273.22 C 1013.44 359.89 1062.13 477.44 1062.13 600.00 Z" fill="#000000" fill-rule="nonzero" node-id="38" stroke="none" target-height="924.26" target-width="924.26" target-x="137.87" target-y="137.87"></path></clipPath></defs><g node-id="81"><g clip-path="url(#clip-path)" group-id="1" id="sillyvg_g_0" node-id="42"><path d="M 1142.37 -219.57 C 1142.37 -117.57 1085.23 -19.74 983.51 52.39 C 881.80 124.52 743.85 165.04 600.00 165.04 C 456.15 165.04 318.20 124.52 216.49 52.39 C 114.77 -19.74 57.63 -117.57 57.63 -219.57 C 57.63 -321.57 114.77 -419.40 216.49 -491.53 C 318.20 -563.66 456.15 -604.18 600.00 -604.18 C 743.85 -604.18 881.80 -563.66 983.51 -491.53 C 1085.23 -419.40 1142.37 -321.57 1142.37 -219.57 Z" fill="#ffffff" fill-rule="nonzero" group-id="1" node-id="44" stroke="#360810" stroke-linecap="round" stroke-width="16" target-height="769.22" target-width="1084.74" target-x="57.630005" target-y="-604.18"></path></g></g><path d="M 1062.13 600.00 C 1062.13 722.56 1013.44 840.11 926.78 926.78 C 840.11 1013.44 722.56 1062.13 600.00 1062.13 C 477.44 1062.13 359.89 1013.44 273.22 926.78 C 186.56 840.11 137.87 722.56 137.87 600.00 C 137.87 477.44 186.56 359.89 273.22 273.22 C 359.89 186.56 477.44 137.87 600.00 137.87 C 722.56 137.87 840.11 186.56 926.78 273.22 C 1013.44 359.89 1062.13 477.44 1062.13 600.00 Z" fill="#5c5d70" fill-rule="nonzero" node-id="47" stroke="none" target-height="924.26" target-width="924.26" target-x="137.87" target-y="137.87"></path><g node-id="82"><g clip-path="url(#clip-path-2)" group-id="2" id="sillyvg_g_1" node-id="49"><path d="M 899.47 594.00 C 899.47 633.85 873.38 672.15 841.19 672.15 C 809.00 672.15 782.92 639.85 782.92 600.00 C 782.92 560.15 816.01 527.85 848.19 527.85 C 880.37 527.85 899.47 554.15 899.47 594.00 Z" fill="#fde9d1" fill-rule="nonzero" group-id="2" node-id="51" stroke="#370911" stroke-linecap="round" stroke-width="14" target-height="144.30005" target-width="116.54999" target-x="782.92" target-y="527.85"></path><path d="M 418.08 600.00 C 418.08 639.85 392.31 672.15 360.52 672.15 C 328.73 672.15 302.00 633.85 302.00 594.00 C 302.00 554.15 321.85 527.85 353.64 527.85 C 385.43 527.85 418.08 560.15 418.08 600.00 Z" fill="#fde9d1" fill-rule="nonzero" group-id="2" node-id="53" stroke="#370911" stroke-linecap="round" stroke-width="14" target-height="144.30005" target-width="116.07999" target-x="302" target-y="527.85"></path><path d="M 1142.37 1086.60 C 1142.37 1188.60 1085.23 1286.43 983.51 1358.56 C 881.80 1430.69 743.85 1471.21 600.00 1471.21 C 456.15 1471.21 318.20 1430.69 216.49 1358.56 C 114.77 1286.43 57.63 1188.60 57.63 1086.60 C 57.63 984.60 114.77 886.77 216.49 814.64 C 318.20 742.51 456.15 701.99 600.00 701.99 C 743.85 701.99 881.80 742.51 983.51 814.64 C 1085.23 886.77 1142.37 984.60 1142.37 1086.60 Z" fill="#8688b4" fill-rule="nonzero" group-id="2" node-id="55" stroke="#360810" stroke-linecap="round" stroke-width="16" target-height="769.22" target-width="1084.74" target-x="57.630005" target-y="701.99"></path><path d="M 762.03 725.39 C 762.03 817.89 689.49 892.88 600.00 892.88 C 510.51 892.88 437.97 817.89 437.97 725.39 C 437.97 632.89 510.51 557.90 600.00 557.90 C 689.49 557.90 762.03 632.89 762.03 725.39 Z" fill="#eab9b1" fill-rule="nonzero" group-id="2" node-id="57" stroke="#370911" stroke-linecap="butt" stroke-width="14" target-height="334.97998" target-width="324.05997" target-x="437.97" target-y="557.9"></path><path d="M 843.28 559.30 C 843.28 714.72 734.86 840.72 601.11 840.72 C 467.36 840.72 358.94 714.72 358.94 559.30 C 358.94 403.88 467.36 277.88 601.11 277.88 C 734.86 277.88 843.28 403.88 843.28 559.30 Z" fill="#f9d9d0" fill-rule="nonzero" group-id="2" node-id="59" stroke="#370911" stroke-linecap="butt" stroke-width="14" target-height="562.83997" target-width="484.33997" target-x="358.94" target-y="277.87997"></path><path d="M 545.08 524.92 C 545.08 539.75 533.06 551.77 518.24 551.77 C 503.42 551.77 491.40 539.75 491.40 524.92 C 491.40 510.09 503.42 498.07 518.24 498.07 C 525.36 498.07 532.19 500.90 537.22 505.93 C 542.25 510.97 545.08 517.80 545.08 524.92 Z" fill="#271d1f" fill-rule="nonzero" group-id="2" node-id="61" stroke="none" target-height="53.69995" target-width="53.680023" target-x="491.4" target-y="498.07"></path><path d="M 708.60 524.92 C 708.60 539.75 696.58 551.77 681.76 551.77 C 666.94 551.77 654.92 539.75 654.92 524.92 C 654.92 517.80 657.75 510.97 662.78 505.93 C 667.81 500.90 674.64 498.07 681.76 498.07 C 688.88 498.07 695.71 500.90 700.74 505.93 C 705.77 510.97 708.60 517.80 708.60 524.92 Z" fill="#271d1f" fill-rule="nonzero" group-id="2" node-id="63" stroke="none" target-height="53.69995" target-width="53.680054" target-x="654.92" target-y="498.07"></path><path d="M 499.68 643.05 C 499.68 670.40 477.50 692.58 450.15 692.58 C 422.80 692.58 400.62 670.40 400.62 643.05 C 400.62 615.70 422.80 593.52 450.15 593.52 C 477.50 593.52 499.68 615.70 499.68 643.05 Z" fill="#de717e" fill-rule="nonzero" group-id="2" node-id="65" stroke="none" target-height="99.05994" target-width="99.06" target-x="400.62003" target-y="593.52"></path><path d="M 799.38 643.05 C 799.38 670.40 777.20 692.58 749.85 692.58 C 722.50 692.58 700.32 670.40 700.32 643.05 C 700.32 615.70 722.50 593.52 749.85 593.52 C 777.20 593.52 799.38 615.70 799.38 643.05 Z" fill="#de717e" fill-rule="nonzero" group-id="2" node-id="67" stroke="none" target-height="99.05994" target-width="99.06012" target-x="700.3199" target-y="593.52"></path><path d="M 594.85 533.39 L 621.00 570.55 L 594.85 600.00" fill="none" group-id="2" node-id="69" stroke="#231815" stroke-linecap="round" stroke-width="16" target-height="66.609985" target-width="26.150024" target-x="594.85" target-y="533.39"></path><path d="M 554.06 678.58 L 643.75 678.58 C 647.53 678.58 651.04 680.55 653.00 683.78 C 654.96 687.02 655.08 691.04 653.33 694.39 C 645.54 709.09 628.84 728.27 595.43 725.03 C 564.09 722.03 550.33 706.38 544.31 694.08 C 542.69 690.73 542.91 686.78 544.89 683.63 C 546.87 680.48 550.34 678.57 554.06 678.58 Z" fill="#ee8685" fill-rule="nonzero" group-id="2" node-id="71" stroke="#310304" stroke-linecap="butt" stroke-width="10" target-height="49.699097" target-width="112.39386" target-x="542.69025" target-y="678.5709"></path><path d="M 341.50 392.25 C 351.90 340.53 364.03 250.43 520.00 208.25 C 675.97 166.07 695.00 248.76 695.00 248.76 C 695.00 248.76 726.20 235.41 809.38 277.29 C 892.56 319.17 854.47 529.00 854.47 529.00 C 854.47 529.00 853.40 597.46 850.55 603.86 C 847.70 610.26 829.65 618.71 827.32 604.32 C 824.99 589.93 830.21 562.32 830.21 540.48 C 830.21 406.71 725.46 298.26 596.21 298.26 C 466.96 298.26 369.00 407.35 369.00 541.13 C 369.00 560.20 364.43 578.13 368.45 595.89 C 349.37 592.15 347.25 585.54 343.45 571.56 C 333.06 533.18 331.10 444.00 341.50 392.25 Z" fill="#ffffff" fill-rule="nonzero" group-id="2" node-id="73" stroke="none" target-height="452.64" target-width="561.45996" target-x="331.1" target-y="166.07"></path><path d="M 514.76 678.14 C 514.76 678.14 545.08 698.85 567.27 689.23 C 589.46 679.61 599.82 666.30 599.82 666.30 C 599.82 666.30 604.62 688.86 634.21 689.60 C 663.80 690.34 685.21 676.66 685.21 676.66 C 685.21 676.66 663.02 645.22 642.68 640.05 C 622.34 634.88 600.00 637.83 600.00 637.83 C 600.00 637.83 568.75 630.06 547.30 643.01 C 525.85 655.96 514.76 678.14 514.76 678.14 Z" fill="#ffffff" fill-rule="nonzero" group-id="2" node-id="75" stroke="none" target-height="68.78992" target-width="170.45001" target-x="514.76" target-y="630.06"></path><path d="M 647.14 449.30 C 647.14 449.30 653.47 435.88 689.63 442.02 C 716.96 446.66 723.34 460.40 723.34 460.40" fill="none" group-id="2" node-id="77" stroke="#ffffff" stroke-linecap="round" stroke-width="20" target-height="24.519989" target-width="76.20001" target-x="647.14" target-y="435.88"></path><path d="M 552.86 449.30 C 552.86 449.30 546.53 435.88 510.37 442.02 C 483.04 446.66 476.66 460.40 476.66 460.40" fill="none" group-id="2" node-id="79" stroke="#ffffff" stroke-linecap="round" stroke-width="20" target-height="24.519989" target-width="76.19998" target-x="476.66" target-y="435.88"></path></g></g></svg>